<?xml version="1.0" encoding="UTF-8"?>
<svg version="1.1" xmlns="http://www.w3.org/2000/svg" width="671" height="182">
<path d="M0 0 C16.20703103 16.34351129 24.81796089 38.84628373 25.0859375 61.6484375 C24.99248931 83.33981306 17.69286706 103.21316016 3.7734375 119.8984375 C3.00773438 120.86394531 2.24203125 121.82945312 1.453125 122.82421875 C-11.28512469 138.03968306 -31.10832325 146.51070585 -50.2265625 149.8984375 C-72.8651701 151.39107032 -90.227232 148.21098339 -110.2265625 137.8984375 C-110.2265625 137.2384375 -110.2265625 136.5784375 -110.2265625 135.8984375 C-109.49695313 136.0428125 -108.76734375 136.1871875 -108.015625 136.3359375 C-82.81181247 140.81661528 -58.67815038 136.8374176 -37.44921875 122.25390625 C-32.70109414 118.78345881 -28.38335004 115.05522504 -24.2265625 110.8984375 C-23.53046875 110.20234375 -22.834375 109.50625 -22.1171875 108.7890625 C-9.71573694 95.61852973 -1.69676149 78.62607658 -0.9140625 60.4609375 C-1.19576759 51.21438208 -3.47541675 42.46670797 -10.2265625 35.8984375 C-18.22992554 29.41952456 -27.13246878 27.95976841 -37.2265625 28.8984375 C-40.96389953 29.70062026 -44.59225847 30.71746443 -48.2265625 31.8984375 C-46.9890625 31.6509375 -46.9890625 31.6509375 -45.7265625 31.3984375 C-37.42827427 30.21296775 -29.30883813 30.47218427 -22.140625 35.3046875 C-17.27875037 39.65370615 -15.11920826 44.48078426 -14.2265625 50.8984375 C-13.72189684 66.06034924 -21.63546044 80.2335547 -31.5390625 91.2109375 C-43.79202657 104.28174195 -60.9306729 113.20218079 -78.97265625 114.0234375 C-89.33215437 114.23458651 -100.20940618 113.44437073 -108.171875 106.10546875 C-114.6459261 99.10320009 -116.82540071 92.89026006 -116.57421875 83.3671875 C-115.11610535 68.81882007 -107.65928677 56.68665167 -98.2265625 45.8984375 C-97.69546875 45.28355469 -97.164375 44.66867188 -96.6171875 44.03515625 C-78.12309853 24.1219664 -48.43526423 14.68567961 -21.99609375 13.53125 C-15.91668604 13.30745865 -9.83679815 13.15747558 -3.75415039 13.05615234 C-1.23213124 13.06399018 -1.23213124 13.06399018 0.7734375 11.8984375 C-1.55917273 11.41551429 -3.89255838 10.93703891 -6.2265625 10.4609375 C-6.87496094 10.32623047 -7.52335938 10.19152344 -8.19140625 10.05273438 C-38.20663568 3.96053434 -70.06870904 6.91473398 -96.45703125 23.05859375 C-117.27688764 36.88955618 -132.69780568 57.32618496 -138.2265625 81.8984375 C-139.40086433 88.2056778 -140.34098918 94.54511982 -141.2265625 100.8984375 C-144.39242783 97.99371381 -145.51505256 94.92254821 -146.7890625 90.8984375 C-147.00522217 90.22127686 -147.22138184 89.54411621 -147.4440918 88.84643555 C-154.6758523 65.62172884 -152.23817328 41.28483473 -141.18847656 19.65576172 C-138.65864351 15.03400073 -135.58086576 10.94499847 -132.2265625 6.8984375 C-131.54980469 6.05925781 -130.87304688 5.22007813 -130.17578125 4.35546875 C-115.25649757 -13.23673961 -94.96994001 -22.74362326 -72.3515625 -25.9140625 C-44.9193811 -27.7551485 -20.10736338 -18.75560786 0 0 Z M-79.2265625 54.8984375 C-79.2265625 65.1284375 -79.2265625 75.3584375 -79.2265625 85.8984375 C-73.70608274 84.05827758 -68.83665663 82.39963727 -63.66015625 79.98046875 C-62.51611328 79.44873047 -61.37207031 78.91699219 -60.19335938 78.36914062 C-59.02869141 77.82193359 -57.86402344 77.27472656 -56.6640625 76.7109375 C-55.45268221 76.14603758 -54.24109498 75.58158121 -53.02929688 75.01757812 C-50.09299459 73.64886351 -47.15884918 72.2757285 -44.2265625 70.8984375 C-46.88211657 68.24288343 -49.98944443 67.10499015 -53.38671875 65.640625 C-54.09179062 65.33271027 -54.79686249 65.02479553 -55.52330017 64.70755005 C-57.01269614 64.05818532 -58.5030855 63.41109499 -59.99438477 62.76611328 C-62.28560892 61.77493152 -64.57368503 60.7767589 -66.86132812 59.77734375 C-68.30711277 59.14802634 -69.75307047 58.51910634 -71.19921875 57.890625 C-71.88774429 57.5906662 -72.57626984 57.2907074 -73.28565979 56.98165894 C-76.15570556 55.5264519 -76.15570556 55.5264519 -79.2265625 54.8984375 Z " fill="#FFFFFF" transform="translate(151.2265625,32.1015625)"/>
<path d="M0 0 C9.57 0 19.14 0 29 0 C29 43.23 29 86.46 29 131 C20.09 131 11.18 131 2 131 C1.67 128.36 1.34 125.72 1 123 C0.45472656 123.39832031 -0.09054687 123.79664063 -0.65234375 124.20703125 C-11.08328078 131.53543317 -22.3908889 134.48764806 -35.1875 132.375 C-46.06714196 129.71239719 -55.23235812 123.74283007 -61.25 114.25 C-69.08915504 100.25913746 -71.40931245 84.32150531 -67.875 68.625 C-64.33129953 56.76344705 -58.75332998 46.62274014 -47.89453125 40.1484375 C-37.62445406 34.86954277 -27.1389294 33.11200316 -15.75 35.75390625 C-10.37970779 37.65588474 -6.02041828 40.13118955 -1 43 C-0.67 28.81 -0.34 14.62 0 0 Z M-34.8125 65.75 C-40.29471683 73.89500786 -40.96646726 81.31310978 -40 91 C-38.31207712 98.21878967 -34.01941119 102.84697709 -28 107 C-22.91251305 108.69582898 -17.04758626 108.99131523 -11.8984375 107.31640625 C-5.74989263 104.05253111 -2.32972661 99.61417984 -0.1875 93.1875 C2.03627265 84.68633485 1.46498457 77.11717501 -2 69 C-4.86964695 64.30600705 -8.6779823 61.26007568 -13.8125 59.3125 C-22.58643913 58.05908012 -28.42077335 59.50031172 -34.8125 65.75 Z " fill="#FFFFFF" transform="translate(450,10)"/>
<path d="M0 0 C9.31794213 6.61070219 15.16654345 16.56879116 17.75 27.703125 C19.98407643 42.29747213 19.98407643 42.29747213 17.3125 47.640625 C-3.4775 47.640625 -24.2675 47.640625 -45.6875 47.640625 C-40.7168974 56.58770967 -38.16746193 59.46931933 -29.375 62.953125 C-20.33129084 64.63924027 -12.87590558 64.00485542 -4.6875 59.640625 C-3.64916016 58.79951172 -3.64916016 58.79951172 -2.58984375 57.94140625 C-1.96207031 57.51214844 -1.33429688 57.08289063 -0.6875 56.640625 C2.76253654 57.79063718 3.22720459 58.54906715 5.23046875 61.45703125 C5.76220703 62.22080078 6.29394531 62.98457031 6.84179688 63.77148438 C7.66260742 64.97514648 7.66260742 64.97514648 8.5 66.203125 C9.33821289 67.41258789 9.33821289 67.41258789 10.19335938 68.64648438 C11.57339103 70.63986343 12.94603508 72.63793249 14.3125 74.640625 C10.87581396 82.12906394 1.95779093 85.01098211 -5.36328125 87.87890625 C-18.21445092 92.09063412 -35.46661901 91.36175765 -47.6875 85.640625 C-60.54962979 79.05603336 -67.82272894 69.68902976 -72.9375 56.390625 C-75.71024426 42.5269037 -75.3525978 27.56298456 -68.2578125 14.9453125 C-60.89500729 4.13920535 -52.0613061 -3.12240063 -39.421875 -6.66796875 C-25.31590603 -9.27963874 -12.16725961 -7.83267337 0 0 Z M-43.6875 24.640625 C-45.44420469 27.35553225 -45.6875 28.35496547 -45.6875 31.640625 C-33.4775 31.640625 -21.2675 31.640625 -8.6875 31.640625 C-10.76020679 24.38615124 -11.79867839 22.50477838 -17.6875 18.640625 C-27.52300912 14.22468213 -36.33575892 17.46392537 -43.6875 24.640625 Z " fill="#FFFFFF" transform="translate(567.6875,52.359375)"/>
<path d="M0 0 C10.56 0 21.12 0 32 0 C33.28777344 3.87492187 34.57554687 7.74984375 35.90234375 11.7421875 C36.92880016 14.82798587 37.95555822 17.9136835 38.98252106 20.99931335 C40.06717492 24.25855963 41.1512941 27.51798155 42.23413086 30.77783203 C43.47604596 34.51650216 44.7203775 38.25436574 45.96484375 41.9921875 C46.35341049 43.16304901 46.74197723 44.33391052 47.14231873 45.54025269 C47.50261673 46.62122223 47.86291473 47.70219177 48.23413086 48.81591797 C48.55167831 49.77078094 48.86922577 50.72564392 49.19639587 51.70944214 C49.94244515 53.9898033 49.94244515 53.9898033 51 56 C57.27 37.52 63.54 19.04 70 0 C80.56 0 91.12 0 102 0 C101.10386567 4.48067166 99.76249823 8.13352621 97.89453125 12.23828125 C97.57877136 12.94344879 97.26301147 13.64861633 96.93768311 14.37515259 C96.25617182 15.89578008 95.57236604 17.4153809 94.88650513 18.93405151 C93.42841923 22.1630698 91.98173736 25.39715235 90.53453064 28.63105774 C89.78935544 30.29608524 89.04363306 31.96086795 88.29737854 33.62541199 C84.67459802 41.71005278 81.10863365 49.81899693 77.5625 57.9375 C77.27506927 58.5950528 76.98763855 59.25260559 76.6914978 59.93008423 C71.73902266 71.26319749 66.85178765 82.62339447 62 94 C54.08 94 46.16 94 38 94 C37.12601563 91.90011719 36.25203125 89.80023438 35.3515625 87.63671875 C26.91601606 67.37456556 18.45501696 47.12316984 9.97360229 26.88017273 C9.26776702 25.19452044 8.56260581 23.50858571 7.85818481 21.82234192 C6.37542598 18.27385441 4.88775128 14.72820543 3.36816406 11.1953125 C2.90893555 10.12023437 2.44970703 9.04515625 1.9765625 7.9375 C1.58807129 7.03902344 1.19958008 6.14054687 0.79931641 5.21484375 C0 3 0 3 0 0 Z " fill="#FFFFFF" transform="translate(215,47)"/>
<path d="M0 0 C-2.64 10.56 -5.28 21.12 -8 32 C-10.31 31.34 -12.62 30.68 -15 30 C-21.0066444 29.38001123 -26.04546171 29.16422842 -31 33 C-31.66 33 -32.32 33 -33 33 C-33.68346682 34.65984798 -34.34588315 36.32836805 -35 38 C-35.34466309 38.81162598 -35.68932617 39.62325195 -36.04443359 40.45947266 C-37.40012363 45.48252245 -37.35773376 50.34114464 -37.4140625 55.5234375 C-37.43342865 56.62475006 -37.4527948 57.72606262 -37.4727478 58.86074829 C-37.53234928 62.36542099 -37.57885162 65.87012688 -37.625 69.375 C-37.66319762 71.75652445 -37.70225039 74.13803534 -37.7421875 76.51953125 C-37.83963839 82.34628217 -37.91936272 88.17289521 -38 94 C-47.57 94 -57.14 94 -67 94 C-67 62.98 -67 31.96 -67 0 C-57.76 0 -48.52 0 -39 0 C-38.67 3.63 -38.34 7.26 -38 11 C-36.906875 9.783125 -35.81375 8.56625 -34.6875 7.3125 C-25.07395108 -2.16635822 -12.69750393 -5.07900157 0 0 Z " fill="#FFFFFF" transform="translate(671,47)"/>
<path d="M0 0 C9.57 0 19.14 0 29 0 C29 31.02 29 62.04 29 94 C19.43 94 9.86 94 0 94 C0 62.98 0 31.96 0 0 Z " fill="#FFFFFF" transform="translate(331,47)"/>
<path d="M0 0 C1.2684375 -0.01933594 2.536875 -0.03867188 3.84375 -0.05859375 C8.90007836 0.6274679 11.97873692 2.76411061 15.375 6.5 C17.14746844 11.12811203 17.13865751 15.55069368 16.5 20.4375 C14.13540272 25.53047876 11.59573859 27.31074109 6.5 29.4375 C0.50187118 30.20189988 -6.19447702 30.63735823 -11.6875 27.75 C-15.45200791 24.65473794 -17.20864041 22.81936463 -17.8125 17.8828125 C-18.01154086 13.29243276 -17.82852902 10.14510096 -15.875 5.9375 C-11.20736167 1.0241965 -6.64438263 0.00675242 0 0 Z " fill="#FFFFFF" transform="translate(345.5,-0.4375)"/>
</svg>
