<svg viewBox="227.2 643.2 1132.8 313.6" xmlns:xlink="http://www.w3.org/1999/xlink" xmlns="http://www.w3.org/2000/svg" data-name="图层 1" id="图层_1" style="max-height: 500px" width="1132.8" height="313.6"><defs><style>.cls-1{fill:url(#未命名的渐变_9);}.cls-2{fill:#fff;}</style><linearGradient gradientUnits="userSpaceOnUse" y2="648.78" x2="376.68" y1="951.22" x1="376.68" id="未命名的渐变_9"><stop stop-color="#06dacf" offset="0"/><stop stop-color="#8a4df4" offset="0.4"/><stop stop-color="#fb318c" offset="1"/></linearGradient></defs><path d="M297.84,951.22A60.3,60.3,0,0,1,237.76,891V735.61h87.62a64.39,64.39,0,1,1,0,128.78h-32V828.76h32a28.76,28.76,0,1,0,0-57.52h-52V891a24.45,24.45,0,0,0,36.67,21.18l157.7-91.05a24.46,24.46,0,0,0,0-42.35l-157.7-91A24.45,24.45,0,0,0,273.39,709v4.69H237.76V709a60.08,60.08,0,0,1,90.12-52L485.57,748a60.08,60.08,0,0,1,0,104.06L327.88,943.08A59.92,59.92,0,0,1,297.84,951.22Z" class="cls-1"/><path d="M627.57,755.67l30,66.9,30-66.9h50.36l-65.94,123H643.15l-65.94-123Z" class="cls-2"/><path d="M751.53,687.09a24.91,24.91,0,1,1-7.43,17.75A24.23,24.23,0,0,1,751.53,687.09Zm-4.08,68.58v123h42.44v-123Z" class="cls-2"/><path d="M872.14,752.07q24.45,0,40.28,15.35V672.47h42.44V878.68h-42V864.77h-.48q-15.82,17.51-40.28,17.5-26.62,0-43.88-18.82T811,817.29Q811,790,828.26,771T872.14,752.07Zm12.7,94q12.46,0,20.51-8.16t8-20.62q0-12.7-8.27-20.86a29.56,29.56,0,0,0-40.76,0q-8.28,8.16-8.28,20.86T864,838Q871.9,846.07,884.84,846.07Z" class="cls-2"/><path d="M1066.36,882.27q-24.46,0-40.28-15.34V941H983.64V755.67h42v13.91h.48q15.83-17.51,40.28-17.51,26.61,0,43.88,18.83t17.26,46.15q0,27.35-17.26,46.28T1066.36,882.27Zm-12.71-94q-12.47,0-20.5,8.15t-8,20.62q0,12.72,8.27,20.86a27.74,27.74,0,0,0,20.26,8.16,28,28,0,0,0,20.5-8.16q8.28-8.14,8.27-20.86t-7.91-20.74Q1066.61,788.29,1053.65,788.28Z" class="cls-2"/><path d="M1151.48,687.09a24.91,24.91,0,1,1-7.43,17.75A24.23,24.23,0,0,1,1151.48,687.09Zm-4.08,68.58v123h42.45v-123Z" class="cls-2"/><path d="M1362.24,878.68h-51.31l-27.09-34.77-27.1,34.77h-51.31l52.51-64.26-45.08-58.75h49.63l21.35,28.53,21.33-28.53h49.64l-45.08,58.75Z" class="cls-2"/></svg>